<svg width="482" height="79" viewBox="0 0 482 79" fill="none" xmlns="http://www.w3.org/2000/svg">
<g filter="url(#filter0_d_101_173)">
<path d="M56.617 35.5C56.617 55.1061 40.2279 71 20.0108 71C-0.206189 71 5.13966 55.1061 5.13966 35.5C5.13966 15.8939 -0.206189 0 20.0108 0C40.2279 0 56.617 15.8939 56.617 35.5Z" fill="#C021CE"/>
<path d="M90.4778 25.5417C94.5411 25.5417 98.0919 26.3479 101.13 27.9603C104.169 29.5726 106.511 31.8446 108.159 34.7763C109.842 37.6712 110.684 41.0243 110.684 44.8354C110.684 48.6098 109.842 51.9628 108.159 54.8945C106.511 57.8261 104.15 60.0981 101.075 61.7105C98.037 63.3228 94.5045 64.129 90.4778 64.129H76.0367V25.5417H90.4778ZM89.8738 55.9938C93.4246 55.9938 96.1884 55.0227 98.1651 53.0805C100.142 51.1383 101.13 48.3899 101.13 44.8354C101.13 41.2808 100.142 38.5141 98.1651 36.5352C96.1884 34.5564 93.4246 33.567 89.8738 33.567H85.4262V55.9938H89.8738Z" fill="white"/>
<path d="M139.927 57.313H125.541L123.235 64.129H113.406L127.353 25.5417H138.225L152.172 64.129H142.233L139.927 57.313ZM137.511 50.0573L132.734 35.9306L128.012 50.0573H137.511Z" fill="white"/>
<path d="M176.074 64.129L168.057 49.5626H165.806V64.129H156.417V25.5417H172.175C175.214 25.5417 177.795 26.073 179.918 27.1357C182.077 28.1985 183.688 29.6643 184.75 31.5332C185.811 33.3654 186.342 35.4175 186.342 37.6895C186.342 40.2547 185.61 42.545 184.146 44.5605C182.718 46.576 180.595 48.0052 177.776 48.848L186.671 64.129H176.074ZM165.806 42.9115H171.626C173.347 42.9115 174.628 42.4901 175.47 41.6472C176.349 40.8044 176.788 39.6134 176.788 38.0743C176.788 36.6085 176.349 35.4542 175.47 34.6114C174.628 33.7685 173.347 33.3471 171.626 33.3471H165.806V42.9115Z" fill="white"/>
<path d="M219.691 70.7252L214.749 64.0741C213.285 64.3672 211.857 64.5138 210.466 64.5138C206.842 64.5138 203.511 63.671 200.473 61.9853C197.471 60.2996 195.073 57.9543 193.279 54.9494C191.522 51.9079 190.644 48.4999 190.644 44.7254C190.644 40.951 191.522 37.5613 193.279 34.5564C195.073 31.5515 197.471 29.2062 200.473 27.5205C203.511 25.8348 206.842 24.992 210.466 24.992C214.09 24.992 217.403 25.8348 220.405 27.5205C223.443 29.2062 225.822 31.5515 227.543 34.5564C229.3 37.5613 230.178 40.951 230.178 44.7254C230.178 48.0235 229.501 51.0467 228.147 53.7951C226.829 56.5068 224.98 58.7605 222.601 60.5561L231.057 70.7252H219.691ZM200.253 44.7254C200.253 48.1334 201.168 50.8635 202.998 52.9156C204.865 54.9311 207.355 55.9388 210.466 55.9388C213.541 55.9388 215.994 54.9128 217.824 52.8606C219.691 50.8085 220.624 48.0968 220.624 44.7254C220.624 41.3174 219.691 38.6057 217.824 36.5902C215.994 34.5381 213.541 33.512 210.466 33.512C207.355 33.512 204.865 34.5197 202.998 36.5352C201.168 38.5507 200.253 41.2808 200.253 44.7254Z" fill="white"/>
<path d="M286.511 25.5417V33.0723H276.298V64.129H266.908V33.0723H256.695V25.5417H286.511Z" fill="white"/>
<path d="M320.105 48.2983C320.105 49.1778 320.05 50.0939 319.941 51.0467H298.691C298.837 52.9523 299.441 54.4181 300.503 55.4441C301.601 56.4335 302.937 56.9283 304.511 56.9283C306.854 56.9283 308.483 55.9388 309.398 53.96H319.391C318.879 55.9755 317.945 57.7894 316.591 59.4018C315.273 61.0142 313.608 62.2784 311.594 63.1946C309.581 64.1107 307.33 64.5688 304.84 64.5688C301.839 64.5688 299.167 63.9275 296.824 62.6449C294.481 61.3623 292.651 59.5301 291.333 57.1481C290.015 54.7662 289.356 51.9812 289.356 48.793C289.356 45.6049 289.997 42.8199 291.278 40.4379C292.596 38.056 294.426 36.2237 296.769 34.9412C299.112 33.6586 301.802 33.0173 304.84 33.0173C307.806 33.0173 310.441 33.6403 312.747 34.8862C315.054 36.1321 316.847 37.9094 318.129 40.2181C319.446 42.5267 320.105 45.2201 320.105 48.2983ZM310.496 45.8248C310.496 44.2124 309.947 42.9298 308.849 41.977C307.751 41.0243 306.378 40.5479 304.731 40.5479C303.157 40.5479 301.82 41.0059 300.722 41.9221C299.661 42.8382 299.002 44.1391 298.746 45.8248H310.496Z" fill="white"/>
<path d="M323.192 48.793C323.192 45.6049 323.832 42.8199 325.114 40.4379C326.431 38.056 328.243 36.2237 330.55 34.9412C332.892 33.6586 335.565 33.0173 338.566 33.0173C342.41 33.0173 345.613 34.025 348.175 36.0405C350.774 38.056 352.477 40.896 353.282 44.5605H343.289C342.447 42.2152 340.818 41.0426 338.402 41.0426C336.681 41.0426 335.308 41.7205 334.283 43.0764C333.258 44.3956 332.746 46.3012 332.746 48.793C332.746 51.2849 333.258 53.2088 334.283 54.5646C335.308 55.8839 336.681 56.5435 338.402 56.5435C340.818 56.5435 342.447 55.3708 343.289 53.0255H353.282C352.477 56.6168 350.774 59.4384 348.175 61.4906C345.576 63.5427 342.373 64.5688 338.566 64.5688C335.565 64.5688 332.892 63.9275 330.55 62.6449C328.243 61.3623 326.431 59.5301 325.114 57.1481C323.832 54.7662 323.192 51.9812 323.192 48.793Z" fill="white"/>
<path d="M377.138 33.1272C380.653 33.1272 383.471 34.2999 385.594 36.6452C387.718 38.9538 388.779 42.1419 388.779 46.2095V64.129H379.445V47.4738C379.445 45.4217 378.914 43.8276 377.852 42.6916C376.791 41.5556 375.363 40.9876 373.569 40.9876C371.776 40.9876 370.348 41.5556 369.286 42.6916C368.225 43.8276 367.694 45.4217 367.694 47.4738V64.129H358.305V23.4529H367.694V37.5796C368.646 36.2237 369.945 35.1427 371.593 34.3365C373.24 33.5303 375.088 33.1272 377.138 33.1272Z" fill="white"/>
<path d="M424.186 48.2983C424.186 49.1778 424.131 50.0939 424.021 51.0467H402.772C402.918 52.9523 403.522 54.4181 404.584 55.4441C405.682 56.4335 407.018 56.9283 408.592 56.9283C410.935 56.9283 412.564 55.9388 413.479 53.96H423.472C422.96 55.9755 422.026 57.7894 420.672 59.4018C419.354 61.0142 417.689 62.2784 415.675 63.1946C413.662 64.1107 411.411 64.5688 408.921 64.5688C405.92 64.5688 403.247 63.9275 400.905 62.6449C398.562 61.3623 396.731 59.5301 395.414 57.1481C394.096 54.7662 393.437 51.9812 393.437 48.793C393.437 45.6049 394.078 42.8199 395.359 40.4379C396.677 38.056 398.507 36.2237 400.85 34.9412C403.193 33.6586 405.883 33.0173 408.921 33.0173C411.886 33.0173 414.522 33.6403 416.828 34.8862C419.134 36.1321 420.928 37.9094 422.209 40.2181C423.527 42.5267 424.186 45.2201 424.186 48.2983ZM414.577 45.8248C414.577 44.2124 414.028 42.9298 412.93 41.977C411.832 41.0243 410.459 40.5479 408.812 40.5479C407.237 40.5479 405.901 41.0059 404.803 41.9221C403.742 42.8382 403.083 44.1391 402.826 45.8248H414.577Z" fill="white"/>
<path d="M438.529 38.569C439.627 36.8834 441 35.5641 442.647 34.6114C444.294 33.6219 446.125 33.1272 448.138 33.1272V43.0764H445.557C443.215 43.0764 441.458 43.5894 440.286 44.6155C439.115 45.6049 438.529 47.3639 438.529 49.8924V64.129H429.14V33.457H438.529V38.569Z" fill="white"/>
<path d="M465.091 64.5688C462.418 64.5688 460.039 64.1107 457.952 63.1946C455.866 62.2784 454.219 61.0325 453.01 59.4568C451.802 57.8444 451.125 56.0488 450.979 54.0699H460.259C460.368 55.1326 460.863 55.9938 461.741 56.6534C462.62 57.313 463.699 57.6428 464.981 57.6428C466.152 57.6428 467.049 57.423 467.671 56.9832C468.33 56.5068 468.66 55.9022 468.66 55.1693C468.66 54.2898 468.202 53.6485 467.287 53.2454C466.372 52.8057 464.889 52.3293 462.839 51.8163C460.643 51.3032 458.813 50.7719 457.348 50.2222C455.884 49.6359 454.621 48.7381 453.56 47.5288C452.498 46.2828 451.967 44.6155 451.967 42.5267C451.967 40.7677 452.443 39.1737 453.395 37.7445C454.383 36.2787 455.811 35.1244 457.678 34.2815C459.581 33.4387 461.833 33.0173 464.432 33.0173C468.275 33.0173 471.295 33.9701 473.492 35.8756C475.725 37.7812 477.006 40.3097 477.335 43.4612H468.66C468.513 42.3984 468.037 41.5556 467.232 40.9326C466.463 40.3097 465.438 39.9982 464.157 39.9982C463.059 39.9982 462.217 40.2181 461.631 40.6578C461.046 41.0609 460.753 41.6289 460.753 42.3618C460.753 43.2413 461.21 43.9009 462.125 44.3406C463.077 44.7804 464.541 45.2201 466.518 45.6599C468.788 46.2462 470.636 46.8325 472.064 47.4188C473.492 47.9685 474.736 48.8846 475.798 50.1672C476.896 51.4132 477.463 53.0988 477.5 55.2243C477.5 57.0199 476.988 58.6323 475.963 60.0614C474.974 61.4539 473.528 62.5533 471.625 63.3595C469.758 64.1657 467.58 64.5688 465.091 64.5688Z" fill="white"/>
<path d="M49.7763 22.7658V32.179H37.0099V71H25.2731V32.179H12.5067V22.7658H49.7763Z" fill="black"/>
</g>
<defs>
<filter id="filter0_d_101_173" x="0.5" y="0" width="481" height="79" filterUnits="userSpaceOnUse" color-interpolation-filters="sRGB">
<feFlood flood-opacity="0" result="BackgroundImageFix"/>
<feColorMatrix in="SourceAlpha" type="matrix" values="0 0 0 0 0 0 0 0 0 0 0 0 0 0 0 0 0 0 127 0" result="hardAlpha"/>
<feOffset dy="4"/>
<feGaussianBlur stdDeviation="2"/>
<feComposite in2="hardAlpha" operator="out"/>
<feColorMatrix type="matrix" values="0 0 0 0 0 0 0 0 0 0 0 0 0 0 0 0 0 0 0.25 0"/>
<feBlend mode="normal" in2="BackgroundImageFix" result="effect1_dropShadow_101_173"/>
<feBlend mode="normal" in="SourceGraphic" in2="effect1_dropShadow_101_173" result="shape"/>
</filter>
</defs>
</svg>
