<svg width="215" height="39" viewBox="0 0 215 39" fill="none" xmlns="http://www.w3.org/2000/svg">
<g filter="url(#filter0_d_101_149)">
<path d="M26.878 15.5C26.878 24.0604 19.7145 31 10.878 31C2.04141 31 4.378 24.0604 4.378 15.5C4.378 6.93959 2.04141 0 10.878 0C19.7145 0 26.878 6.93959 26.878 15.5Z" fill="#C021CE"/>
<path d="M41.678 11.152C43.454 11.152 45.006 11.504 46.334 12.208C47.662 12.912 48.686 13.904 49.406 15.184C50.142 16.448 50.51 17.912 50.51 19.576C50.51 21.224 50.142 22.688 49.406 23.968C48.686 25.248 47.654 26.24 46.31 26.944C44.982 27.648 43.438 28 41.678 28H35.366V11.152H41.678ZM41.414 24.448C42.966 24.448 44.174 24.024 45.038 23.176C45.902 22.328 46.334 21.128 46.334 19.576C46.334 18.024 45.902 16.816 45.038 15.952C44.174 15.088 42.966 14.656 41.414 14.656H39.47V24.448H41.414Z" fill="white"/>
<path d="M63.2915 25.024H57.0035L55.9955 28H51.6995L54.7475 19.576L57.7955 11.152H62.5475L68.6435 28H64.2995L63.2915 25.024ZM62.2355 21.856L60.1475 15.688L58.0835 21.856H62.2355Z" fill="white"/>
<path d="M79.0908 28L75.5868 21.64H74.6028V28H70.4988V11.152H77.3868C78.7148 11.152 79.8428 11.384 80.7708 11.848C81.7148 12.312 82.4188 12.952 82.8828 13.768C83.3468 14.568 83.5788 15.464 83.5788 16.456C83.5788 17.576 83.2588 18.576 82.6188 19.456C81.9948 20.336 81.0668 20.96 79.8348 21.328L83.7228 28H79.0908ZM74.6028 18.736H77.1468C77.8988 18.736 78.4588 18.552 78.8268 18.184C79.2108 17.816 79.4028 17.296 79.4028 16.624C79.4028 15.984 79.2108 15.48 78.8268 15.112C78.4588 14.744 77.8988 14.56 77.1468 14.56H74.6028V18.736Z" fill="white"/>
<path d="M98.1551 30.88L95.9951 27.976C95.3551 28.104 94.7311 28.168 94.1231 28.168C92.5391 28.168 91.0831 27.8 89.7551 27.064C88.4431 26.328 87.3951 25.304 86.6111 23.992C85.8431 22.664 85.4591 21.176 85.4591 19.528C85.4591 17.88 85.8431 16.4 86.6111 15.088C87.3951 13.776 88.4431 12.752 89.7551 12.016C91.0831 11.28 92.5391 10.912 94.1231 10.912C95.7071 10.912 97.1551 11.28 98.4671 12.016C99.7951 12.752 100.835 13.776 101.587 15.088C102.355 16.4 102.739 17.88 102.739 19.528C102.739 20.968 102.443 22.288 101.851 23.488C101.275 24.672 100.467 25.656 99.4271 26.44L103.123 30.88H98.1551ZM89.6591 19.528C89.6591 21.016 90.0591 22.208 90.8591 23.104C91.6751 23.984 92.7631 24.424 94.1231 24.424C95.4671 24.424 96.5391 23.976 97.3391 23.08C98.1551 22.184 98.5631 21 98.5631 19.528C98.5631 18.04 98.1551 16.856 97.3391 15.976C96.5391 15.08 95.4671 14.632 94.1231 14.632C92.7631 14.632 91.6751 15.072 90.8591 15.952C90.0591 16.832 89.6591 18.024 89.6591 19.528Z" fill="white"/>
<path d="M127.361 11.152V14.44H122.897V28H118.793V14.44H114.329V11.152H127.361Z" fill="white"/>
<path d="M142.045 21.088C142.045 21.472 142.021 21.872 141.973 22.288H132.685C132.749 23.12 133.013 23.76 133.477 24.208C133.957 24.64 134.541 24.856 135.229 24.856C136.253 24.856 136.965 24.424 137.365 23.56H141.733C141.509 24.44 141.101 25.232 140.509 25.936C139.933 26.64 139.205 27.192 138.325 27.592C137.445 27.992 136.461 28.192 135.373 28.192C134.061 28.192 132.893 27.912 131.869 27.352C130.845 26.792 130.045 25.992 129.469 24.952C128.893 23.912 128.605 22.696 128.605 21.304C128.605 19.912 128.885 18.696 129.445 17.656C130.021 16.616 130.821 15.816 131.845 15.256C132.869 14.696 134.045 14.416 135.373 14.416C136.669 14.416 137.821 14.688 138.829 15.232C139.837 15.776 140.621 16.552 141.181 17.56C141.757 18.568 142.045 19.744 142.045 21.088ZM137.845 20.008C137.845 19.304 137.605 18.744 137.125 18.328C136.645 17.912 136.045 17.704 135.325 17.704C134.637 17.704 134.053 17.904 133.573 18.304C133.109 18.704 132.821 19.272 132.709 20.008H137.845Z" fill="white"/>
<path d="M143.394 21.304C143.394 19.912 143.674 18.696 144.234 17.656C144.81 16.616 145.602 15.816 146.61 15.256C147.634 14.696 148.802 14.416 150.114 14.416C151.794 14.416 153.194 14.856 154.314 15.736C155.45 16.616 156.194 17.856 156.546 19.456H152.178C151.81 18.432 151.098 17.92 150.042 17.92C149.29 17.92 148.69 18.216 148.242 18.808C147.794 19.384 147.57 20.216 147.57 21.304C147.57 22.392 147.794 23.232 148.242 23.824C148.69 24.4 149.29 24.688 150.042 24.688C151.098 24.688 151.81 24.176 152.178 23.152H156.546C156.194 24.72 155.45 25.952 154.314 26.848C153.178 27.744 151.778 28.192 150.114 28.192C148.802 28.192 147.634 27.912 146.61 27.352C145.602 26.792 144.81 25.992 144.234 24.952C143.674 23.912 143.394 22.696 143.394 21.304Z" fill="white"/>
<path d="M166.973 14.464C168.509 14.464 169.741 14.976 170.669 16C171.597 17.008 172.061 18.4 172.061 20.176V28H167.981V20.728C167.981 19.832 167.749 19.136 167.285 18.64C166.821 18.144 166.197 17.896 165.413 17.896C164.629 17.896 164.005 18.144 163.541 18.64C163.077 19.136 162.845 19.832 162.845 20.728V28H158.741V10.24H162.845V16.408C163.261 15.816 163.829 15.344 164.549 14.992C165.269 14.64 166.077 14.464 166.973 14.464Z" fill="white"/>
<path d="M187.537 21.088C187.537 21.472 187.513 21.872 187.465 22.288H178.177C178.241 23.12 178.505 23.76 178.969 24.208C179.449 24.64 180.033 24.856 180.721 24.856C181.745 24.856 182.457 24.424 182.857 23.56H187.225C187.001 24.44 186.593 25.232 186.001 25.936C185.425 26.64 184.697 27.192 183.817 27.592C182.937 27.992 181.953 28.192 180.865 28.192C179.553 28.192 178.385 27.912 177.361 27.352C176.337 26.792 175.537 25.992 174.961 24.952C174.385 23.912 174.097 22.696 174.097 21.304C174.097 19.912 174.377 18.696 174.937 17.656C175.513 16.616 176.313 15.816 177.337 15.256C178.361 14.696 179.537 14.416 180.865 14.416C182.161 14.416 183.313 14.688 184.321 15.232C185.329 15.776 186.113 16.552 186.673 17.56C187.249 18.568 187.537 19.744 187.537 21.088ZM183.337 20.008C183.337 19.304 183.097 18.744 182.617 18.328C182.137 17.912 181.537 17.704 180.817 17.704C180.129 17.704 179.545 17.904 179.065 18.304C178.601 18.704 178.313 19.272 178.201 20.008H183.337Z" fill="white"/>
<path d="M193.806 16.84C194.286 16.104 194.886 15.528 195.606 15.112C196.326 14.68 197.126 14.464 198.006 14.464V18.808H196.878C195.854 18.808 195.086 19.032 194.574 19.48C194.062 19.912 193.806 20.68 193.806 21.784V28H189.702V14.608H193.806V16.84Z" fill="white"/>
<path d="M205.416 28.192C204.248 28.192 203.208 27.992 202.296 27.592C201.384 27.192 200.664 26.648 200.136 25.96C199.608 25.256 199.312 24.472 199.248 23.608H203.304C203.352 24.072 203.568 24.448 203.952 24.736C204.336 25.024 204.808 25.168 205.368 25.168C205.88 25.168 206.272 25.072 206.544 24.88C206.832 24.672 206.976 24.408 206.976 24.088C206.976 23.704 206.776 23.424 206.376 23.248C205.976 23.056 205.328 22.848 204.432 22.624C203.472 22.4 202.672 22.168 202.032 21.928C201.392 21.672 200.84 21.28 200.376 20.752C199.912 20.208 199.68 19.48 199.68 18.568C199.68 17.8 199.888 17.104 200.304 16.48C200.736 15.84 201.36 15.336 202.176 14.968C203.008 14.6 203.992 14.416 205.128 14.416C206.808 14.416 208.128 14.832 209.088 15.664C210.064 16.496 210.624 17.6 210.768 18.976H206.976C206.912 18.512 206.704 18.144 206.352 17.872C206.016 17.6 205.568 17.464 205.008 17.464C204.528 17.464 204.16 17.56 203.904 17.752C203.648 17.928 203.52 18.176 203.52 18.496C203.52 18.88 203.72 19.168 204.12 19.36C204.536 19.552 205.176 19.744 206.04 19.936C207.032 20.192 207.84 20.448 208.464 20.704C209.088 20.944 209.632 21.344 210.096 21.904C210.576 22.448 210.824 23.184 210.84 24.112C210.84 24.896 210.616 25.6 210.168 26.224C209.736 26.832 209.104 27.312 208.272 27.664C207.456 28.016 206.504 28.192 205.416 28.192Z" fill="white"/>
<path d="M23.888 9.94V14.05H18.308V31H13.178V14.05H7.59802V9.94H23.888Z" fill="black"/>
</g>
<defs>
<filter id="filter0_d_101_149" x="0.0984192" y="0" width="214.741" height="39" filterUnits="userSpaceOnUse" color-interpolation-filters="sRGB">
<feFlood flood-opacity="0" result="BackgroundImageFix"/>
<feColorMatrix in="SourceAlpha" type="matrix" values="0 0 0 0 0 0 0 0 0 0 0 0 0 0 0 0 0 0 127 0" result="hardAlpha"/>
<feOffset dy="4"/>
<feGaussianBlur stdDeviation="2"/>
<feComposite in2="hardAlpha" operator="out"/>
<feColorMatrix type="matrix" values="0 0 0 0 0 0 0 0 0 0 0 0 0 0 0 0 0 0 0.25 0"/>
<feBlend mode="normal" in2="BackgroundImageFix" result="effect1_dropShadow_101_149"/>
<feBlend mode="normal" in="SourceGraphic" in2="effect1_dropShadow_101_149" result="shape"/>
</filter>
</defs>
</svg>
